<svg width="52" height="52" viewBox="0 0 52 52" fill="none" xmlns="http://www.w3.org/2000/svg">
    <rect width="52" height="52" rx="10" fill="url(#q6upvxpona)"/>
    <path d="M12.23 37.536v-3.52c0-1.393-.526-2.025-1.576-2.025s-1.667.774-1.667 2.036v3.508H7.8V28.27h.012c.65 0 1.175.54 1.175 1.205v2.27h.023c.377-.572.982-.865 1.77-.865 1.508 0 2.638.983 2.638 2.76v3.896H12.23z" fill="#fff"/>
    <path fill-rule="evenodd" clip-rule="evenodd" d="M14.477 34.232c-.039 1.886 1.49 3.445 3.331 3.468a3.428 3.428 0 0 0 3.496-3.358 3.38 3.38 0 0 0-3.368-3.462c-1.913 0-3.415 1.422-3.459 3.352zm1.19.052c0-1.263 1.028-2.293 2.215-2.293 1.24.006 2.238 1.041 2.232 2.31-.006 1.27-1.016 2.294-2.255 2.288-1.199 0-2.192-1.078-2.192-2.305z" fill="#fff"/>
    <path d="M22.506 36.565v-4.399h-.495v-1.11h.493V28.88h1.187v2.175h1.039v1.111h-1.036v5.526h-.086c-.608 0-1.1-.504-1.102-1.127zM28.215 32.775c-.057-.468-.32-.784-.811-.784-.456 0-.742.316-.742.69 0 .55.549.714 1.176.913.89.28 1.712.83 1.712 2.035 0 1.252-.891 2.07-2.124 2.07-1.142 0-2.238-.795-2.238-2.292h1.189c.057.783.445 1.182 1.073 1.182.548 0 .914-.364.914-.89 0-.444-.332-.736-1.074-.982-1.553-.503-1.816-1.193-1.816-1.93 0-1.146.948-1.906 1.987-1.906 1.04 0 1.907.749 1.941 1.895h-1.187zM30.807 36.565v-4.399h-.492v-1.11h.493V28.88h1.187v2.175h1.04v1.111h-1.04v5.526h-.086c-.608 0-1.101-.504-1.102-1.127z" fill="#fff"/>
    <path fill-rule="evenodd" clip-rule="evenodd" d="M38.89 36.53v1.006h1.188v-6.48h-1.187v.912h-.023c-.491-.737-1.267-1.088-2.193-1.088-1.86 0-3.31 1.45-3.31 3.521 0 1.872 1.506 3.299 3.356 3.299.902 0 1.701-.398 2.147-1.17h.023zm-2.18-4.539c1.313 0 2.203 1.053 2.203 2.316 0 1.234-.957 2.245-2.162 2.28-1.169.023-2.135-.95-2.196-2.152-.071-1.332.928-2.444 2.154-2.444z" fill="#fff"/>
    <path d="M41.46 37.536v-6.48h1.108v.584h.022c.286-.432.776-.713 1.61-.76v1.251c-1.027.035-1.553.68-1.553 1.767v2.584a1.04 1.04 0 0 1-1.027 1.053h-.16z" fill="#fff"/>
    <path fill-rule="evenodd" clip-rule="evenodd" d="M20.853 23.462c.008.22-.005.44-.04.658-.029.147-.07.292-.12.433a4.855 4.855 0 0 1-.216.446c-.17.285-.377.545-.615.773-.674.596-1.712.936-2.612 1.052a6.484 6.484 0 0 1-1.947-.058c-.221-.04-.55-.119-.55-.119s0 .135-.01.23c-.012.067-.03.132-.055.195a.301.301 0 0 1-.236.175.69.69 0 0 1-.402-.02c-.204-.088-.278-.284-.313-.51-.03-.181-.06-.495-.06-.495l-.28-.14a7.266 7.266 0 0 1-1.089-.684c-.086-.07-.478-.4-.563-.484a3.258 3.258 0 0 1-.62-.763c-.128-.232-.164-.439-.067-.685.134-.344.614-.603.942-.75.422-.174.858-.31 1.304-.407a3.78 3.78 0 0 0 .39-.073.09.09 0 0 0 .014-.013c.007-.01.02-.35.017-.474a13.92 13.92 0 0 1 .117-1.096c.015-.087.086-.445.153-.538a.136.136 0 0 1 .191-.017c.357.228.466 1.018.492 1.42.017.245.024.615.024.615s.411-.012.664 0c.258.012.516.041.77.088.326.053.962.195 1.326.384.3.156.582.419.672.697a.722.722 0 0 1-.056.66.903.903 0 0 1-.697.47c-.085.004-.394-.038-.49-.114a.09.09 0 0 1-.007-.122c.078-.05.158-.096.241-.138a.57.57 0 0 0 .112-.082.291.291 0 0 0 .129-.218c-.01-.108-.122-.175-.228-.217-.497-.202-1.491-.37-1.969-.4-.187-.011-.455-.02-.455-.02l.057 2.718s.22.044.395.073c.1.015.523.054.636.057.856.023 1.813-.055 2.599-.439a2.72 2.72 0 0 0 .901-.653 1.93 1.93 0 0 0 .438-1.41c-.047-.58-.446-1.268-.764-1.686-.84-1.107-2.279-2.017-3.546-2.55a11.073 11.073 0 0 0-3.943-.925c-.354-.013-1.125.005-1.514.116l-.065.02c-.034.01-.068.02-.1.027a.433.433 0 0 0-.122.053.25.25 0 0 0-.02.02l.047.023a.88.88 0 0 0 .165.027c.05.006.103.012.14.02.08.01.151.054.198.12a.12.12 0 0 1 0 .15c-.086.11-.421.088-.568.069-.146-.02-.342-.073-.376-.209-.04-.16.034-.317.113-.461.161-.29.392-.439.73-.535a7.226 7.226 0 0 1 1.54-.248c1.028-.04 1.995.144 2.988.453.634.202 1.255.449 1.855.74.465.235.916.495 1.353.78.109.074.747.553.846.638.207.176.478.422.674.621.378.385.85.975 1.08 1.443l.05.111c.035.076.07.154.12.24.057.126.106.255.147.388.017.076.043.187.046.192.021.118.035.238.041.358h-.002zm.256-1.983c.032-.066.068-.131.109-.193h-.002c.005-.006.03.007.05.022.063.025.13.042.198.053.04.003.081.01.123.017.038.006.077.013.115.016.284.009.566-.043.83-.15a3.61 3.61 0 0 0 1.308-.92c.235-.244.44-.645.364-1.011a.745.745 0 0 0-.266-.438.99.99 0 0 0-.38-.186.344.344 0 0 1-.1-.022.289.289 0 0 1-.054-.064.97.97 0 0 0-.395-.272c-.393-.143-.918-.034-1.275.12-.374.16-.712.396-.993.695-.264.288-.467.652-.446 1.047.01.152.05.301.117.438.019.034.043.068.067.103.045.065.09.131.105.196.006.07.008.138.004.207a.621.621 0 0 0 .19.434.17.17 0 0 0 .246.007.378.378 0 0 0 .085-.099zm-.007-1.462c-.093.126-.204.301-.204.301l-.003-.002-.04-.087c-.102-.269.131-.571.343-.757.129-.113.39-.289.562-.324.073-.016.204-.029.204-.029l-.154.132c-.26.231-.497.488-.708.766zm3.902 3.43-.042-.006-.001.008-1.44-.175a.825.825 0 0 0-.073-.014c-.096-.016-.31-.053-.22-.153a.454.454 0 0 1 .171-.072c.497-.138 1.095-.16 1.655-.18.174-.005.345-.011.507-.02.225-.009.448-.038.668-.088a.463.463 0 0 0 .328-.351c.02-.096-.028-.141-.114-.189-.566-.308-1.5-.31-2.077-.236-.597.076-1.394.266-1.736.769a.97.97 0 0 0-.147.726.499.499 0 0 0 .264.307c.126.051.259.085.394.1.114.018.545.055.88.084l.133.011c.327.029.963.1 1.306.247 0 0 .323.116.323.306a.292.292 0 0 1-.14.22c-.51.37-1.21.476-1.834.465-.206 0-.41-.044-.599-.13-.091-.042-.211-.14-.194-.245.035-.203.254-.255.436-.237.114.016.226.048.332.094.085.034.16.067.228.097.257.113.429.19.706.146.135-.02.587-.121.648-.314a.138.138 0 0 0-.04-.132c-.048-.05-.322-.16-.396-.188a4.454 4.454 0 0 0-1.058-.198c-.37-.013-.862.058-1.092.38a.654.654 0 0 0-.029.69c.161.29.48.516.74.647.455.224.961.317 1.464.267.267-.025.527-.098.77-.215.32-.14.567-.413.68-.75.112-.337.08-.707-.088-1.019a.89.89 0 0 0-.46-.444 3.187 3.187 0 0 0-.853-.207zm-2.93-2.808c.331-.023.653-.122.942-.288.287-.164.709-.485.664-.862a.315.315 0 0 0-.19-.257c-.127-.056-.193-.047-.357 0-.1.028-.196.07-.284.124a4.37 4.37 0 0 0-1.049.955l-.083.117c-.03.04-.056.08-.08.111-.03.037-.053.071-.05.08.01.038.356.034.487.025v-.005zm-.4 1.457c.02.004.04.01.06.017.18.07.257.24.298.428.103.438.146 1.395.164 1.771l.015.416.016.424.002.064c.01.227.021.505-.022.707a.367.367 0 0 1-.144.22.636.636 0 0 1-.386.037c-.263-.056-.349-.229-.386-.495-.086-.636-.047-1.883.006-2.41.018-.176.081-.73.171-.965.03-.079.095-.238.207-.215v.001zm-7.997 1.055h.002-.002zm0 0c-.028.002-.4.03-.66.059-.46.051-.914.148-1.357.287-.111.042-.342.138-.358.256-.015.117.053.216.135.316.048.056.316.321.392.385.438.356.916.654 1.426.889.162.068.428.166.428.166s-.02-.781-.016-1.55c0-.402.01-.8.01-.808zm18.314-.115s1.262-.061 1.741-.175l-.004.005c.246-.06.1-.307.1-.307-.3-.613-.643-.579-.643-.579-.992-.035-2.444.247-2.591.316-.148.068-.131.181.06.43.21.26.553.236.553.236l-.304.644c-.248.018-.333.098-.333.098-.143.151.054.614.054.614s-.431.987-.118 1.513c.335.549.731.522.731.522.756.057 1.996-.758 2.063-1.02.055-.216-.148-.464-.31-.498-.163-.034-1.397.202-1.554.246-.157.044-.086-.11-.086-.11l.192-.666s1.197-.046 1.359-.076c.162-.03.171-.146.171-.146.012-.122.017-.244.014-.367-.017-.193-.166-.175-.166-.175a6.838 6.838 0 0 0-1.089.006l.16-.51zM30 25.338c-.127.307-.463.634-.88.431-.418-.202-1.069-1.579-1.069-1.579s-.249-.513-.297-.5c0 0-.053-.1-.085.462-.008.13-.012.289-.016.457-.013.559-.028 1.229-.195 1.36a.379.379 0 0 1-.585-.096c-.117-.199-.166-.669-.102-1.491.064-.823.263-1.707.502-1.982.23-.264.414-.088.498-.008l.009.008s.32.298.847 1.17l.093.162s.48.823.53.822c0 0 .039.037.074.01.05-.014.03-.279.03-.279s-.1-.898-.537-2.419a.726.726 0 0 1-.022-.366c.045-.176.22-.096.22-.096s.678.35 1.008 1.48c.33 1.13.107 2.152-.023 2.456v-.002zm4.959.757c1.158.273 2.03-.882 2.338-1.434v-.003c.187-.367.282-.776.279-1.19 0-.474-.128-.914-.404-1.116-.82-.584-2.145 1.267-2.728 2.185-.086-.468.222-1.06.222-1.06s.497-.872.565-1.052c.068-.18.1-.55.022-.585-.078-.036-.21.081-.21.081-1.111 1.022-1.267 2.155-1.267 2.155-.105.61.018 1.04.198 1.34-.617 1.347-.92 2.523-.839 3.218.07.53.445.912.67.992.227.098.267-.182.267-.182.14-1.153.438-2.28.887-3.349zm2.1-2.89s-.046-.364-.394.037a8.646 8.646 0 0 0-1.275 1.842c.375-.05.73-.201 1.027-.438.216-.197.72-.731.64-1.44h.002zm4.496-.083h2.122v.003c.094.001.17.08.169.177v.452a.173.173 0 0 1-.172.175h-2.093v.305c.004.607-.024 1.214-.085 1.817a.173.173 0 0 1-.172.16h-.453a.16.16 0 0 1-.12-.056.169.169 0 0 1-.04-.127 16.18 16.18 0 0 0 .092-1.794v-.305h-2.07a.173.173 0 0 1-.172-.175v-.452c0-.097.077-.175.171-.175h2.042a16.383 16.383 0 0 0-.27-2.158.15.15 0 0 1 .03-.122.144.144 0 0 1 .11-.053h.49c.075 0 .14.055.154.131.136.726.225 1.46.267 2.197z" fill="#fff"/>
    <path d="M41.002 19.73c-2.04-5.137-6.684-8.698-12.07-9.254-5.385-.557-10.63 1.982-13.63 6.598a.179.179 0 0 0 .088.265l.38.131a.235.235 0 0 0 .069.012.21.21 0 0 0 .17-.097c2.576-3.89 6.867-6.219 11.455-6.216 5.563 0 10.587 3.41 12.755 8.66a.2.2 0 0 0 .184.124h.454a.16.16 0 0 0 .13-.072.167.167 0 0 0 .017-.151h-.002z" fill="url(#vz4psbjh8b)"/>
    <defs>
        <radialGradient id="vz4psbjh8b" cx="0" cy="0" r="1" gradientUnits="userSpaceOnUse" gradientTransform="matrix(25.3102 0 0 25.9253 40.579 19.936)">
            <stop offset=".007" stop-color="#021192"/>
            <stop offset=".03" stop-color="#021096"/>
            <stop offset=".057" stop-color="#010CB4"/>
            <stop offset=".084" stop-color="#0008CE"/>
            <stop offset=".111" stop-color="#0006D7"/>
            <stop offset=".138" stop-color="#0004E1"/>
            <stop offset=".165" stop-color="#0001FA"/>
            <stop offset=".191" stop-color="#0000FE"/>
            <stop offset=".216" stop-color="#0F1EFF"/>
            <stop offset="1" stop-color="#0FF" stop-opacity="0"/>
        </radialGradient>
        <linearGradient id="q6upvxpona" x1="3.092" y1="0" x2="3.092" y2="45.816" gradientUnits="userSpaceOnUse">
            <stop stop-color="#0F194A"/>
            <stop offset="1" stop-color="#142A66"/>
        </linearGradient>
    </defs>
</svg>
