<svg width="52" height="52" viewBox="0 0 52 52" fill="none" xmlns="http://www.w3.org/2000/svg">
<rect x="0.5" y="0.5" width="51" height="51" rx="5.5" fill="white"/>
<rect x="0.5" y="0.5" width="51" height="51" rx="5.5" stroke="#EAEAEC"/>
<g clip-path="url(#clip0_2603_9981)">
<path d="M11.6599 30.6491C11.6599 29.6514 12.1491 28.8425 13.035 28.5999L11.3633 27.0784L12.8463 24.9714C9.42585 25.3065 7.4537 27.8103 7.4537 30.6491C7.43536 31.9285 7.85631 33.1756 8.64631 34.1822C9.43631 35.1888 10.5476 35.894 11.7947 36.1803L12.9503 32.7137C12.1106 32.4171 11.6599 31.6274 11.6599 30.6491Z" fill="url(#paint0_linear_2603_9981)"/>
<path d="M15.5913 30.653C15.5913 31.874 14.8864 32.8023 13.6153 32.8023C13.3236 32.8132 13.0336 32.7533 12.77 32.6279C12.5064 32.5025 12.2771 32.3152 12.1015 32.082L7.94922 33.0064C8.81203 34.967 10.7803 36.3999 13.6191 36.3999C17.5288 36.3999 19.7821 33.7036 19.7821 30.6491C19.7821 27.5946 17.5095 24.9253 13.6191 24.9253H13.4728H13.3842L13.3033 23.8159L10.7495 27.0861L13.831 29.8787V28.5344H13.9042C14.9904 28.6654 15.5913 29.5436 15.5913 30.653Z" fill="url(#paint1_linear_2603_9981)"/>
<path d="M28.0591 36.1303V30.0868C28.0591 28.9543 27.4428 28.5229 26.4683 28.5229C26.1296 28.5207 25.795 28.5971 25.4909 28.7461C25.1867 28.8952 24.9214 29.1128 24.7157 29.3819V36.1265H20.625V25.1988H24.7157V26.4429C25.3512 25.7188 26.5569 24.9253 28.4905 24.9253C31.0366 24.9253 32.1497 26.466 32.1497 28.365V36.1303H28.0591Z" fill="url(#paint2_linear_2603_9981)"/>
<path fill-rule="evenodd" clip-rule="evenodd" d="M32.9492 30.6531C32.9492 27.483 35.3797 24.9292 38.9273 24.9292C42.1551 24.9292 44.6319 27.2403 44.6319 31.0922V31.9319H37.1786C37.4058 32.6329 38.2031 33.3108 39.5436 33.3108C40.156 33.3108 41.5196 33.0181 42.0666 32.5405L43.746 35.048C42.6559 35.9686 40.703 36.4 39.066 36.4C35.6301 36.4 32.9492 34.2507 32.9492 30.6531ZM38.9273 28.0261C38.5203 27.9934 38.1152 28.1081 37.7857 28.3492C37.4562 28.5903 37.2243 28.9418 37.1323 29.3396H40.7454C40.6337 28.8619 40.2446 28.0261 38.9273 28.0261Z" fill="url(#paint3_linear_2603_9981)"/>
<path d="M9.52913 17.2869C9.53792 17.3811 9.57188 17.4712 9.62745 17.5477C9.68302 17.6243 9.75815 17.6845 9.84498 17.7221C10.1931 17.8879 10.5626 18.0046 10.9428 18.0688C11.4748 18.146 11.9756 18.3671 12.3911 18.7082C12.5458 18.8614 12.6663 19.0456 12.7447 19.2488C12.823 19.452 12.8574 19.6694 12.8456 19.8869C12.8501 20.1434 12.7995 20.3978 12.6972 20.6331C12.5948 20.8683 12.4432 21.0789 12.2524 21.2504C11.7956 21.6365 11.2087 21.8335 10.6115 21.8012C9.21456 21.8012 8.34276 21.1592 7.99609 19.8753L9.15165 19.3129C9.22822 19.6756 9.40121 20.011 9.65239 20.2836C9.91731 20.513 10.2617 20.6292 10.6115 20.6071C10.837 20.6175 11.0602 20.5583 11.2509 20.4377C11.3254 20.3899 11.3869 20.3245 11.4299 20.2472C11.4729 20.1699 11.4961 20.0832 11.4974 19.9947C11.4993 19.8831 11.47 19.7731 11.4128 19.6772C11.3557 19.5812 11.2729 19.5031 11.1739 19.4516C10.8557 19.2752 10.5088 19.1565 10.1493 19.1011C8.90641 18.8623 8.28498 18.2665 8.28498 17.3138C8.27743 17.0749 8.32655 16.8377 8.42831 16.6214C8.53007 16.4052 8.68159 16.2161 8.87046 16.0697C9.3212 15.7388 9.87196 15.5729 10.4305 15.5997C10.9388 15.5776 11.4416 15.7121 11.8711 15.9849C12.275 16.2796 12.581 16.6889 12.7493 17.1597L11.717 17.7722C11.6537 17.473 11.4886 17.2049 11.2497 17.0139C11.0109 16.8228 10.7132 16.7205 10.4074 16.7245C10.1825 16.7121 9.95892 16.7656 9.76409 16.8786C9.69165 16.919 9.63153 16.9783 9.59015 17.0502C9.54877 17.1221 9.52768 17.2039 9.52913 17.2869Z" fill="#F25C6B"/>
<path d="M15.098 21.6821L13.4609 15.7195H14.9169L15.7181 19.0436C15.7342 19.1294 15.7548 19.2143 15.7798 19.2979C15.7798 19.3479 15.8029 19.4211 15.8221 19.5213C15.8414 19.6214 15.8568 19.683 15.8645 19.7139L15.9993 19.0321L16.8352 15.7195H18.268L19.1039 19.0321L19.2387 19.7139C19.2387 19.683 19.2387 19.6176 19.2734 19.5213L19.3235 19.2979C19.3235 19.2401 19.362 19.1553 19.3851 19.0436L20.167 15.7195H21.6269L20.0052 21.6821H18.5492L17.5516 17.7879L16.554 21.6821H15.098Z" fill="#F25C6B"/>
<path d="M22.6094 21.6821V15.7195H23.9922V21.6821H22.6094Z" fill="#F25C6B"/>
<path d="M30.2322 21.6821L29.9934 20.9579C29.7884 21.2382 29.5163 21.4624 29.2019 21.6098C28.8875 21.7572 28.5411 21.8232 28.1946 21.8015C27.7988 21.8129 27.405 21.7417 27.0382 21.5925C26.6715 21.4433 26.3399 21.2193 26.0645 20.9348C25.502 20.3298 25.2027 19.5263 25.2325 18.7007C25.2205 18.2874 25.2951 17.876 25.4517 17.4932C25.6083 17.1105 25.8432 16.7647 26.1415 16.4782C26.4381 16.1903 26.7892 15.9643 27.1741 15.8136C27.559 15.6628 27.97 15.5902 28.3833 15.6C28.9417 15.5881 29.4937 15.7208 29.9857 15.9852C30.4346 16.2252 30.8 16.5959 31.0334 17.0483L29.978 17.8187C29.8287 17.5164 29.5984 17.2617 29.3127 17.0828C29.027 16.9039 28.6973 16.8079 28.3602 16.8056C28.1267 16.8014 27.895 16.847 27.6804 16.9393C27.4659 17.0316 27.2735 17.1686 27.116 17.341C26.7752 17.7085 26.5937 18.196 26.6115 18.6969C26.5908 19.1959 26.7648 19.6834 27.0968 20.0566C27.242 20.2298 27.4236 20.369 27.6286 20.4641C27.8337 20.5593 28.0571 20.6082 28.2832 20.6074C28.6411 20.6208 28.9925 20.5091 29.2769 20.2916C29.5303 20.0983 29.701 19.8161 29.7546 19.5019H27.948V18.4465H31.1104V21.6821H30.2322Z" fill="#F25C6B"/>
<path d="M37.2518 21.6821L37.013 20.9579C36.8087 21.2379 36.5371 21.4619 36.2234 21.6093C35.9097 21.7568 35.564 21.8228 35.218 21.8015C34.8222 21.8131 34.4284 21.742 34.0616 21.5928C33.6948 21.4436 33.3632 21.2195 33.088 20.9348C32.808 20.636 32.5901 20.2848 32.4466 19.9013C32.3031 19.5179 32.237 19.1098 32.2521 18.7007C32.2398 18.287 32.3148 17.8752 32.4721 17.4923C32.6293 17.1094 32.8654 16.7639 33.165 16.4782C33.4601 16.1893 33.8103 15.9627 34.1948 15.8118C34.5792 15.661 34.9901 15.5889 35.4029 15.6C35.9613 15.5881 36.5133 15.7208 37.0053 15.9852C37.4551 16.224 37.8208 16.595 38.053 17.0483L36.9976 17.8186C36.8487 17.5161 36.6185 17.2611 36.3327 17.0822C36.0469 16.9032 35.717 16.8075 35.3798 16.8056C35.1463 16.8014 34.9146 16.847 34.7001 16.9393C34.4855 17.0316 34.2931 17.1686 34.1357 17.341C33.7994 17.7119 33.6236 18.2007 33.6465 18.7007C33.63 19.2 33.8082 19.6862 34.1434 20.0566C34.4141 20.3556 34.7861 20.5435 35.1874 20.5841C35.5887 20.6247 35.9907 20.5149 36.3158 20.2761C36.5672 20.0816 36.7363 19.7998 36.7896 19.4865H34.9677V18.4465H38.13V21.6821H37.2518Z" fill="#F25C6B"/>
<path d="M42.3509 19.4173V21.6821H40.9643V19.4173L38.9883 15.7195H40.529L41.4843 17.6184L41.5459 17.7648C41.6075 17.9343 41.6422 18.0344 41.6538 18.0614L41.7655 17.7648L41.8271 17.6184L42.7862 15.7195H44.3269L42.3509 19.4173Z" fill="#F25C6B"/>
</g>
<defs>
<linearGradient id="paint0_linear_2603_9981" x1="11.0629" y1="24.879" x2="10.1269" y2="31.9895" gradientUnits="userSpaceOnUse">
<stop stop-color="white" stop-opacity="0"/>
<stop offset="1" stop-color="#F57E47"/>
</linearGradient>
<linearGradient id="paint1_linear_2603_9981" x1="41.2369" y1="51.7573" x2="7.60255" y2="26.0538" gradientUnits="userSpaceOnUse">
<stop stop-color="#F15B6B"/>
<stop offset="0.4" stop-color="#F15B6A"/>
<stop offset="0.72" stop-color="#F15C42"/>
<stop offset="1" stop-color="#F89A4B"/>
</linearGradient>
<linearGradient id="paint2_linear_2603_9981" x1="45.612" y1="46.0334" x2="11.9776" y2="20.33" gradientUnits="userSpaceOnUse">
<stop stop-color="#F15B6B"/>
<stop offset="0.4" stop-color="#F15B6A"/>
<stop offset="0.72" stop-color="#F15C42"/>
<stop offset="1" stop-color="#F89A4B"/>
</linearGradient>
<linearGradient id="paint3_linear_2603_9981" x1="50.5214" y1="39.6086" x2="16.887" y2="13.9052" gradientUnits="userSpaceOnUse">
<stop stop-color="#F15B6B"/>
<stop offset="0.4" stop-color="#F15B6A"/>
<stop offset="0.72" stop-color="#F15C42"/>
<stop offset="1" stop-color="#F89A4B"/>
</linearGradient>
<clipPath id="clip0_2603_9981">
<rect width="37.1781" height="20.8" fill="white" transform="translate(7.45312 15.6001)"/>
</clipPath>
</defs>
</svg>
