<svg id="Layer_1" data-name="Layer 1" xmlns="http://www.w3.org/2000/svg" xmlns:xlink="http://www.w3.org/1999/xlink" viewBox="0 0 30 30"><defs><style>.cls-1,.cls-2,.cls-3{fill:#04c;}.cls-1{clip-rule:evenodd;}.cls-3{fill-rule:evenodd;}.cls-4{clip-path:url(#clip-path);}.cls-5{clip-path:url(#clip-path-2);}</style><clipPath id="clip-path"><path class="cls-1" d="M27.60938,12.80494a.61017.61017,0,0,1-.57442.57286.52423.52423,0,0,1-.36922-.17763.54727.54727,0,0,1-.17806-.39523.61949.61949,0,0,1,.54728-.54579.55031.55031,0,0,1,.39629.17763.52187.52187,0,0,1,.18167.367Zm-.76552,2.235-.60156.16352a14.214,14.214,0,0,1-1.4496.3l-.73837,7.17566-.191.79168a.94218.94218,0,0,1-1.012.79053H21.54089v.10937l-.20528.51879a1.00746,1.00746,0,0,1-.91642.59994q-.35385.027-3.29556.02707H10.778q-3.40518,0-6.16752-.0141L1.8481,25.4882l-.38333-.15054A.7968.7968,0,0,1,1,24.64245V9.56063L1.27368,9.083a1.25687,1.25687,0,0,1,1.03911-.55876q.27369-.05412,2.31066-.36823t4.77222-.72348l1.23135-2.235a1.12528,1.12528,0,0,1,.62872-.614,1.193,1.193,0,0,1,.848-.04119,1.74581,1.74581,0,0,1,.5331.20471.96314.96314,0,0,1,.39636.45052,1.01168,1.01168,0,0,0-.46477-.27289,1.74364,1.74364,0,0,0-.46469-.10938,1.3414,1.3414,0,0,0-.68407.19054,1.36636,1.36636,0,0,0-.5202.54585L1.92827,22.138a1.2219,1.2219,0,0,0-.09555,1.02345,1.1964,1.1964,0,0,0,.67.75049,1.06387,1.06387,0,0,0,.88934.15056,1.01808,1.01808,0,0,0,.697-.614l6.236-12.11629v9.95654a1.14955,1.14955,0,0,0,.46477.94109A1.63259,1.63259,0,0,0,11.829,22.598a1.22413,1.22413,0,0,0,1.02615-.53168,4.23719,4.23719,0,0,1,.47887-.58817l3.52783-6.79219v5.86521a1.20352,1.20352,0,0,0,.42344.927,1.40947,1.40947,0,0,0,.97073.38234,1.44353,1.44353,0,0,0,.99786-.38234,1.20334,1.20334,0,0,0,.42345-.927V9.28413a1.19154,1.19154,0,0,0-.42345-.941,1.4732,1.4732,0,0,0-.99786-.36823,1.26043,1.26043,0,0,0-.75248.24588,1.76573,1.76573,0,0,0-.53317.59994l-3.4736,6.60159-.9294,1.77274.57442-2.235V6.775q1.75028-.29994,3.35091-.55876t2.83078-.47759q1.23015-.2188,1.95561-.34108l.7242-.11767.57442.01411q.57435.01415.62865.914v.4635A7.98584,7.98584,0,0,1,24.492,6.64444q.98486.0271,1.06152,1.14579L25.25272,11.418l.32789.04117a4.02489,4.02489,0,0,0,1.367-.31407l.95774-.13644Q28.86314,10.87226,29,12.26383l-.118,1.07754Q28.76169,14.413,26.84741,15.04ZM23.20631,6.775,21.62225,22.78735a3.09245,3.09245,0,0,0,.62865-.06819.54931.54931,0,0,0,.41047-.50467q.05422-.29994.30075-2.56442t.506-4.85592q.25955-2.588.47887-4.70538l.21938-2.11744-.05422-.39523q-.0555-.39168-.90353-.8011Zm4.869,6.0288a.96818.96818,0,0,0-.30082-.70583,1.00491,1.00491,0,0,0-.73837-.3,1.026,1.026,0,0,0-1.012,1.00928.99968.99968,0,0,0,.30075.73638.97284.97284,0,0,0,.70767.3,1.026,1.026,0,0,0,1.04274-1.03983Z"/></clipPath><clipPath id="clip-path-2"><rect class="cls-2" x="-87.39121" y="-313.8624" width="274.59382" height="438.68383"/></clipPath></defs><path class="cls-3" d="M27.60938,12.80494a.61017.61017,0,0,1-.57442.57286.52423.52423,0,0,1-.36922-.17763.54727.54727,0,0,1-.17806-.39523.61949.61949,0,0,1,.54728-.54579.55031.55031,0,0,1,.39629.17763.52187.52187,0,0,1,.18167.367Zm-.76552,2.235-.60156.16352a14.214,14.214,0,0,1-1.4496.3l-.73837,7.17566-.191.79168a.94218.94218,0,0,1-1.012.79053H21.54089v.10937l-.20528.51879a1.00746,1.00746,0,0,1-.91642.59994q-.35385.027-3.29556.02707H10.778q-3.40518,0-6.16752-.0141L1.8481,25.4882l-.38333-.15054A.7968.7968,0,0,1,1,24.64245V9.56063L1.27368,9.083a1.25687,1.25687,0,0,1,1.03911-.55876q.27369-.05412,2.31066-.36823t4.77222-.72348l1.23135-2.235a1.12528,1.12528,0,0,1,.62872-.614,1.193,1.193,0,0,1,.848-.04119,1.74581,1.74581,0,0,1,.5331.20471.96314.96314,0,0,1,.39636.45052,1.01168,1.01168,0,0,0-.46477-.27289,1.74364,1.74364,0,0,0-.46469-.10938,1.3414,1.3414,0,0,0-.68407.19054,1.36636,1.36636,0,0,0-.5202.54585L1.92827,22.138a1.2219,1.2219,0,0,0-.09555,1.02345,1.1964,1.1964,0,0,0,.67.75049,1.06387,1.06387,0,0,0,.88934.15056,1.01808,1.01808,0,0,0,.697-.614l6.236-12.11629v9.95654a1.14955,1.14955,0,0,0,.46477.94109A1.63259,1.63259,0,0,0,11.829,22.598a1.22413,1.22413,0,0,0,1.02615-.53168,4.23719,4.23719,0,0,1,.47887-.58817l3.52783-6.79219v5.86521a1.20352,1.20352,0,0,0,.42344.927,1.40947,1.40947,0,0,0,.97073.38234,1.44353,1.44353,0,0,0,.99786-.38234,1.20334,1.20334,0,0,0,.42345-.927V9.28413a1.19154,1.19154,0,0,0-.42345-.941,1.4732,1.4732,0,0,0-.99786-.36823,1.26043,1.26043,0,0,0-.75248.24588,1.76573,1.76573,0,0,0-.53317.59994l-3.4736,6.60159-.9294,1.77274.57442-2.235V6.775q1.75028-.29994,3.35091-.55876t2.83078-.47759q1.23015-.2188,1.95561-.34108l.7242-.11767.57442.01411q.57435.01415.62865.914v.4635A7.98584,7.98584,0,0,1,24.492,6.64444q.98486.0271,1.06152,1.14579L25.25272,11.418l.32789.04117a4.02489,4.02489,0,0,0,1.367-.31407l.95774-.13644Q28.86314,10.87226,29,12.26383l-.118,1.07754Q28.76169,14.413,26.84741,15.04ZM23.20631,6.775,21.62225,22.78735a3.09245,3.09245,0,0,0,.62865-.06819.54931.54931,0,0,0,.41047-.50467q.05422-.29994.30075-2.56442t.506-4.85592q.25955-2.588.47887-4.70538l.21938-2.11744-.05422-.39523q-.0555-.39168-.90353-.8011Zm4.869,6.0288a.96818.96818,0,0,0-.30082-.70583,1.00491,1.00491,0,0,0-.73837-.3,1.026,1.026,0,0,0-1.012,1.00928.99968.99968,0,0,0,.30075.73638.97284.97284,0,0,0,.70767.3,1.026,1.026,0,0,0,1.04274-1.03983Z"/><g class="cls-4"><rect class="cls-2" x="-87.39121" y="-313.8624" width="274.59382" height="438.68383"/><g class="cls-5"><rect class="cls-2" x="0.64559" y="4.12914" width="28.70876" height="21.74176"/></g></g></svg>
