<?xml version="1.0" encoding="utf-8"?>
<!-- Generator: Adobe Illustrator 23.0.4, SVG Export Plug-In . SVG Version: 6.00 Build 0)  -->
<svg version="1.1" id="Layer_1" xmlns="http://www.w3.org/2000/svg" xmlns:xlink="http://www.w3.org/1999/xlink" x="0px" y="0px"
	 viewBox="0 0 40 40" style="enable-background:new 0 0 40 40;" xml:space="preserve">
<style type="text/css">
	.st0{clip-path:url(#SVGID_2_);fill:#FFFFFF;}
	.st1{clip-path:url(#SVGID_2_);fill-rule:evenodd;clip-rule:evenodd;fill:#FA8815;}
	.st2{clip-path:url(#SVGID_2_);fill-rule:evenodd;clip-rule:evenodd;fill:#9D1823;}
	.st3{clip-path:url(#SVGID_2_);fill-rule:evenodd;clip-rule:evenodd;fill:#FFFFFF;}
</style>
<g>
	<defs>
		<rect id="SVGID_1_" width="40" height="40"/>
	</defs>
	<clipPath id="SVGID_2_">
		<use xlink:href="#SVGID_1_"  style="overflow:visible;"/>
	</clipPath>
	<path class="st0" d="M20,0c1.31,0,2.61,0.13,3.9,0.38c1.29,0.26,2.54,0.64,3.75,1.14c1.21,0.5,2.37,1.12,3.46,1.85
		c1.09,0.73,2.1,1.56,3.03,2.49s1.76,1.94,2.49,3.03c0.73,1.09,1.35,2.24,1.85,3.46c0.5,1.21,0.88,2.46,1.14,3.75
		C39.87,17.39,40,18.69,40,20c0,1.31-0.13,2.61-0.38,3.9c-0.26,1.29-0.64,2.54-1.14,3.75s-1.12,2.37-1.85,3.46
		c-0.73,1.09-1.56,2.1-2.49,3.03s-1.94,1.76-3.03,2.49c-1.09,0.73-2.24,1.35-3.46,1.85s-2.46,0.88-3.75,1.14
		C22.61,39.87,21.31,40,20,40c-1.31,0-2.61-0.13-3.9-0.38c-1.29-0.26-2.54-0.64-3.75-1.14s-2.37-1.12-3.46-1.85
		c-1.09-0.73-2.1-1.56-3.03-2.49S4.1,32.2,3.37,31.11s-1.35-2.24-1.85-3.46s-0.88-2.46-1.14-3.75S0,21.31,0,20
		c0-1.31,0.13-2.61,0.38-3.9s0.64-2.54,1.14-3.75c0.5-1.21,1.12-2.37,1.85-3.46C4.1,7.8,4.93,6.79,5.86,5.86S7.8,4.1,8.89,3.37
		c1.09-0.73,2.24-1.35,3.46-1.85c1.21-0.5,2.46-0.88,3.75-1.14C17.39,0.13,18.69,0,20,0z"/>
	<path class="st1" d="M13.83,11.52C20.7,4.71,29.01,2.95,32.32,7.6c3.31,4.65,0.41,14-6.46,20.81c-6.87,6.81-15.18,8.57-18.49,3.92
		C4.06,27.68,6.96,18.33,13.83,11.52"/>
	<path class="st2" d="M18.38,7.89c-0.74,0.56-1.53,1.2-2.27,1.94c-6.02,5.93-8.52,14.08-5.56,18.16c3.06,4.08,10.47,2.59,16.58-3.43
		c3.29-3.2,5.51-6.95,6.44-10.42c0.28-2.55-0.09-4.82-1.25-6.53C29.68,4,24.03,4.27,18.38,7.89"/>
	<path class="st3" d="M26.63,7.67c0.8,0.8,0.31,2.55-1.05,3.93c-1.38,1.37-3.17,1.85-3.94,1.06c-0.83-0.79-0.34-2.57,1.04-3.96
		C24.06,7.32,25.85,6.9,26.63,7.67z M21.78,31.78c-3.22,2.42-6.54,3.61-9.78,3.11c1.36,0.07,2.46-1.44,3.36-3.47
		c0.91-2.08,1.47-4.01,1.9-5.81c0.64-2.85,0.69-4.89,0.36-5.33c-0.55-0.73-1.8-0.54-3.22,0.28c-0.68,0.38-1.58,0.13-0.51-1.16
		c1.08-1.3,5.36-4.43,6.9-4.92c1.69-0.49,3.62,0.18,2.97,2.03C23.3,17.85,17.38,33.39,21.78,31.78"/>
</g>
</svg>
