<?xml version="1.0" encoding="utf-8"?>
<!-- Generator: Adobe Illustrator 23.0.4, SVG Export Plug-In . SVG Version: 6.00 Build 0)  -->
<svg version="1.1" id="Layer_1" xmlns="http://www.w3.org/2000/svg" xmlns:xlink="http://www.w3.org/1999/xlink" x="0px" y="0px"
	 viewBox="0 0 40 40" style="enable-background:new 0 0 40 40;" xml:space="preserve">
<style type="text/css">
	.st0{clip-path:url(#SVGID_2_);fill:#FFFFFF;}
	.st1{clip-path:url(#SVGID_2_);fill-rule:evenodd;clip-rule:evenodd;fill:#0099DC;}
	.st2{clip-path:url(#SVGID_2_);fill-rule:evenodd;clip-rule:evenodd;fill:#FFFFFF;}
</style>
<g>
	<defs>
		<rect id="SVGID_1_" width="40" height="40"/>
	</defs>
	<clipPath id="SVGID_2_">
		<use xlink:href="#SVGID_1_"  style="overflow:visible;"/>
	</clipPath>
	<path class="st0" d="M20,0c1.31,0,2.61,0.13,3.9,0.38c1.29,0.26,2.54,0.64,3.75,1.14c1.21,0.5,2.37,1.12,3.46,1.85
		c1.09,0.73,2.1,1.56,3.03,2.49s1.76,1.94,2.49,3.03c0.73,1.09,1.35,2.24,1.85,3.46c0.5,1.21,0.88,2.46,1.14,3.75
		C39.87,17.39,40,18.69,40,20c0,1.31-0.13,2.61-0.38,3.9c-0.26,1.29-0.64,2.54-1.14,3.75s-1.12,2.37-1.85,3.46
		c-0.73,1.09-1.56,2.1-2.49,3.03s-1.94,1.76-3.03,2.49c-1.09,0.73-2.24,1.35-3.46,1.85s-2.46,0.88-3.75,1.14
		C22.61,39.87,21.31,40,20,40c-1.31,0-2.61-0.13-3.9-0.38c-1.29-0.26-2.54-0.64-3.75-1.14s-2.37-1.12-3.46-1.85
		c-1.09-0.73-2.1-1.56-3.03-2.49S4.1,32.2,3.37,31.11s-1.35-2.24-1.85-3.46s-0.88-2.46-1.14-3.75S0,21.31,0,20
		c0-1.31,0.13-2.61,0.38-3.9s0.64-2.54,1.14-3.75c0.5-1.21,1.12-2.37,1.85-3.46C4.1,7.8,4.93,6.79,5.86,5.86S7.8,4.1,8.89,3.37
		c1.09-0.73,2.24-1.35,3.46-1.85c1.21-0.5,2.46-0.88,3.75-1.14C17.39,0.13,18.69,0,20,0z"/>
	<circle class="st1" cx="19.96" cy="19.96" r="14.96"/>
	<path class="st2" d="M19.96,17.37c1.43,0,2.59,1.16,2.59,2.59s-1.16,2.59-2.59,2.59s-2.59-1.16-2.59-2.59S18.53,17.37,19.96,17.37z
		"/>
	<rect x="19.21" y="21.65" class="st2" width="1.5" height="13.35"/>
</g>
</svg>
