<svg id="Layer_1" data-name="Layer 1" xmlns="http://www.w3.org/2000/svg" xmlns:xlink="http://www.w3.org/1999/xlink" viewBox="0 0 30 30"><defs><style>.cls-1{fill:none;}.cls-2{clip-path:url(#clip-path);}.cls-3{isolation:isolate;}.cls-4{fill:#673ab7;}.cls-4,.cls-5{fill-rule:evenodd;}.cls-5{fill:#fff;}</style><clipPath id="clip-path"><rect class="cls-1" width="30" height="30"/></clipPath></defs><g class="cls-2"><g class="cls-3"><g class="cls-2"><path class="cls-4" d="M30,15.00024a15,15,0,1,1-15-15,14.99987,14.99987,0,0,1,15,15"/><path class="cls-5" d="M21.40609,10.00051h-3.0025a.59886.59886,0,0,1-.33375-.101,1.0087,1.0087,0,0,1-.28687-.30373L16.07922,6.8609,14.37484,4.12605a.65.65,0,0,0-.25-.26755.72717.72717,0,0,0-.37-.08982H12.30109a.31643.31643,0,0,0-.3575.35737.70288.70288,0,0,0,.02438.18462.71485.71485,0,0,0,.07062.17151l.66751.98729.66812.98729q.66188.98229,1.375,1.8673.71343.885,1.475,1.67645H9.203a.47355.47355,0,0,0-.33938.10728.42042.42042,0,0,0-.11375.32057v.99913a.49822.49822,0,0,0,.11375.35675.44808.44808,0,0,0,.33938.1185h1.3825a.22206.22206,0,0,1,.16062.08357.33232.33232,0,0,1,.05375.20208v5.18529a4.21013,4.21013,0,0,0,.24687,1.49,3.08527,3.08527,0,0,0,.74188,1.13821,3.21348,3.21348,0,0,0,1.15313.72222,4.27817,4.27817,0,0,0,1.48062.24137h.69125a3.27094,3.27094,0,0,0,1.35876-.2501,1.79081,1.79081,0,0,0,.835-.74966h.095v4.40069a.39966.39966,0,0,0,.45312.45156H19.118a.39965.39965,0,0,0,.45312-.45156v-12.178a.30966.30966,0,0,1,.065-.21393.25627.25627,0,0,1,.19688-.07172h1.57312a.40032.40032,0,0,0,.45313-.45155V10.42836a.42042.42042,0,0,0-.11375-.32057A.47353.47353,0,0,0,21.40609,10.00051Zm-4.00375,7.11122a2.35926,2.35926,0,0,1-.1225.78833,1.64685,1.64685,0,0,1-.36687.60311,1.51125,1.51125,0,0,1-.61688.38418,2.71366,2.71366,0,0,1-.8725.12723h-.64312a1.82082,1.82082,0,0,1-1.35875-.4634,1.91972,1.91972,0,0,1-.45313-1.392V12.18839a.3067.3067,0,0,1,.06562-.21393.25442.25442,0,0,1,.19688-.07172h3.90876a.25626.25626,0,0,1,.19687.07172.30665.30665,0,0,1,.06562.21393v4.92334Z"/></g></g></g></svg>